<svg xmlns="http://www.w3.org/2000/svg" width="16" height="16" viewBox="0 0 16 16">
<path  vector-effect="non-scaling-stroke" stroke-width="1" stroke="#0c0c0d" fill="#4B4A4A" d="M14.5,1.2c-0.3-0.4-1-0.3-1.4,0.1l-1.3,1.2c-0.9-1.2-2.2-2-3.8-2c-2.6,0-4.7,2.3-4.7,5.1
c0,0.6,0.1,1.2,0.3,1.7c0,0.1,0.1,0.2,0.1,0.3l0,0.1c0.1,0.1,0.1,0.2,0.2,0.4l0.7,1.5l-2.8,2.8c-0.4,0.4-0.6,1.1-0.2,1.5s1,0.3,1.4-0.1L14.2,2.6C14.7,2.2,14.8,1.5,14.5,1.2z M6.6,13.7c0.6,1.2,2.2,1.2,2.8,0l3-6c0.1-0.1,0.1-0.3,0.1-0.4c0.1-0.3,0.2-0.6,0.2-1l-6.5,6.4L6.6,13.7z"/>
<path  vector-effect="non-scaling-stroke" stroke-width="1" stroke="#0c0c0d" fill="#040000" d="M8,2.3c0.9,0,1.6,0.7,1.6,1.5c-0.1,2-3.2,2-3.2,0C6.4,3,7.1,2.3,8,2.3z"/>
</svg>
