<svg xmlns="http://www.w3.org/2000/svg" width="16" height="16" viewBox="0 0 16 16">
<path vector-effect="non-scaling-stroke" stroke-width="1" stroke="#0c0c0d" fill="#fff" d="M13,5.9c0-2.8-2.2-5.1-5-5.1C4.6,0.7,2.1,4.4,3.3,7.6c0,0.1,0.1,0.2,0.1,0.3c0,0.1,3,5.8,3.1,6.1c0.6,1.2,2.3,1.2,2.9,0l3.1-6c0.1-0.1,0.1-0.3,0.2-0.4C12.9,7,13,6.4,13,5.9z"/>
<path vector-effect="non-scaling-stroke" stroke-width="1" stroke="#0c0c0d" fill="#040000" d="M8,2.3c0.9,0,1.6,0.7,1.6,1.5c-0.1,2-3.2,2-3.2,0C6.4,3,7.1,2.3,8,2.3z"/>
</svg>
